<?xml version="1.0" standalone="no"?>
<!DOCTYPE svg PUBLIC "-//W3C//DTD SVG 20010904//EN"
 "http://www.w3.org/TR/2001/REC-SVG-20010904/DTD/svg10.dtd">
<svg version="1.0" xmlns="http://www.w3.org/2000/svg"
 width="441.000000pt" height="441.000000pt" viewBox="0 0 441.000000 441.000000"
 preserveAspectRatio="xMidYMid meet">
<metadata>
Created by potrace 1.14, written by Peter Selinger 2001-2017
</metadata>
<g transform="translate(0.000000,441.000000) scale(0.100000,-0.100000)"
fill="#000000" stroke="none">
<path d="M3407 4124 c-9 -10 8 -40 72 -124 54 -71 92 -126 156 -229 45 -72
150 -288 194 -398 22 -56 74 -203 116 -325 132 -394 164 -509 184 -648 22
-159 51 -240 86 -240 19 0 19 34 0 176 -17 125 -15 114 -55 297 -113 505 -268
926 -436 1184 -132 203 -279 345 -317 307z"/>
<path d="M1465 4098 c-15 -44 -12 -127 5 -199 23 -94 20 -367 -4 -504 -9 -49
-18 -99 -20 -110 -26 -144 -106 -345 -202 -510 -95 -162 -154 -316 -154 -402
0 -69 19 -103 57 -103 75 0 152 120 258 405 32 85 122 418 138 510 3 17 10 55
16 85 19 104 22 135 26 290 4 157 -1 216 -31 370 -30 154 -70 230 -89 168z"/>
<path d="M1080 4101 c0 -19 -142 -304 -196 -392 -191 -317 -369 -534 -576
-706 -161 -135 -257 -247 -289 -339 -26 -75 -11 -124 44 -144 36 -12 71 5 188
91 167 123 363 340 526 583 67 99 191 351 231 466 25 72 36 126 68 320 10 66
15 130 10 130 -3 0 -6 -4 -6 -9z"/>
<path d="M2806 4074 c-9 -24 -7 -95 4 -135 6 -20 33 -74 61 -120 113 -188 179
-361 204 -542 3 -27 8 -56 10 -65 1 -10 8 -53 14 -97 7 -44 14 -93 16 -110 18
-119 22 -321 16 -660 -4 -177 -4 -176 15 -142 18 34 50 155 61 234 12 89 9
399 -6 483 -7 41 -15 89 -17 105 -2 17 -6 41 -9 55 -3 14 -7 41 -9 60 -2 19
-7 46 -10 60 -3 14 -8 42 -11 63 -28 204 -104 453 -195 642 -75 155 -126 215
-144 169z"/>
<path d="M2159 4058 c-4 -60 8 -244 16 -258 2 -3 6 -37 10 -75 4 -39 9 -72 10
-75 2 -3 6 -33 10 -65 3 -33 8 -67 10 -75 4 -16 12 -97 20 -210 7 -86 7 -337
1 -425 -9 -118 -17 -219 -21 -245 -2 -14 -6 -47 -10 -75 -3 -27 -13 -97 -21
-155 -16 -106 -18 -124 -30 -215 -17 -138 4 -162 68 -77 131 176 173 404 173
942 0 188 -6 298 -20 350 -2 8 -6 35 -9 60 -18 136 -59 304 -111 454 -47 133
-93 202 -96 144z"/>
<path d="M497 1724 c-3 -4 5 -21 18 -39 32 -42 33 -73 1 -81 -14 -3 -32 -14
-41 -24 -16 -18 -18 -17 -52 6 -25 17 -45 22 -71 20 -44 -5 -87 -21 -96 -35
-11 -16 37 -41 88 -45 26 -3 51 -7 54 -11 4 -4 -17 -29 -47 -56 -55 -49 -63
-79 -21 -79 25 0 72 23 89 44 11 14 16 14 38 -1 14 -10 41 -17 61 -18 28 0 36
-4 38 -21 3 -15 -7 -27 -37 -44 -65 -36 -109 -79 -109 -107 0 -65 64 -120 126
-109 47 9 85 58 80 103 -4 40 -33 73 -65 76 -21 1 -21 2 -5 14 14 10 19 10 25
1 13 -20 30 3 44 59 18 68 20 266 3 293 -21 35 -103 72 -121 54z m51 -216 c-2
-28 -8 -34 -33 -39 -42 -8 -53 -2 -47 27 5 25 30 42 65 43 15 1 18 -5 15 -31z
m-28 -243 c46 -24 36 -84 -12 -72 -31 8 -50 45 -34 70 13 21 10 20 46 2z"/>
<path d="M2290 1720 c0 -39 75 -100 123 -100 52 0 59 66 8 75 -45 9 -95 22
-113 30 -12 4 -18 3 -18 -5z"/>
<path d="M2970 1720 c-10 -6 -5 -18 18 -48 31 -39 31 -40 37 -183 3 -79 8
-182 10 -229 5 -72 7 -94 14 -129 1 -2 8 2 16 9 22 18 42 104 44 184 1 35 3
38 24 32 12 -4 43 -9 68 -12 37 -5 47 -3 52 10 17 44 -33 74 -97 59 l-44 -10
1 112 c2 107 1 113 -25 146 -28 38 -97 72 -118 59z"/>
<path d="M3559 1719 c-1 -7 0 -22 1 -32 1 -10 -6 -25 -16 -32 -29 -21 -23 -79
11 -115 50 -52 125 -49 161 5 45 68 -4 159 -71 135 -15 -6 -28 0 -52 23 -22
21 -33 26 -34 16z m106 -108 c7 -23 -3 -51 -19 -51 -16 0 -56 29 -56 41 0 5 7
9 15 9 8 0 15 5 15 10 0 18 38 11 45 -9z"/>
<path d="M1123 1689 c-18 -11 -53 -22 -78 -23 -65 -5 -74 -19 -30 -46 20 -12
47 -23 60 -24 36 -2 31 -11 -22 -47 -59 -40 -67 -51 -47 -66 18 -13 35 -9 84
24 56 36 126 13 80 -27 l-23 -20 32 0 c49 0 90 26 91 58 0 23 -40 52 -72 52
l-33 1 43 37 c46 40 52 60 24 85 -24 22 -69 20 -109 -4z"/>
<path d="M1730 1624 c-25 -8 -61 -12 -81 -10 -73 9 -76 -32 -3 -60 41 -16 47
-16 90 1 25 9 47 15 49 13 2 -2 6 -37 9 -77 7 -90 13 -111 31 -111 22 0 43 51
48 116 5 69 -3 97 -35 117 -37 24 -60 26 -108 11z"/>
<path d="M2291 1596 c-52 -14 -59 -27 -36 -62 17 -26 32 -28 80 -9 20 8 20 8
0 -14 -11 -12 -32 -30 -47 -38 -26 -16 -43 -49 -29 -57 4 -3 28 6 55 20 52 26
96 31 96 11 0 -16 -34 -49 -68 -66 -34 -18 -154 -26 -179 -13 -19 11 -21 8
-28 -25 -10 -56 22 -66 132 -39 32 8 78 18 103 21 l45 7 -70 -44 c-38 -24 -71
-52 -73 -62 -5 -24 43 -73 85 -87 44 -14 84 -4 117 30 25 26 26 30 11 45 -19
19 -19 19 -69 5 -39 -11 -86 -5 -86 10 0 16 99 73 157 90 65 19 78 41 39 66
-19 13 -29 14 -45 6 -11 -6 -27 -11 -36 -11 -13 0 -9 8 14 29 17 16 31 35 31
43 0 22 -39 58 -63 58 -21 0 -21 0 3 16 40 27 51 44 39 65 -11 21 -49 25 -79
9 -13 -7 -21 -7 -25 0 -7 12 -17 12 -74 -4z"/>
<path d="M4155 1602 c-75 -4 -104 -13 -135 -39 -64 -54 -63 -45 -63 -513 0
-471 1 -475 64 -523 47 -34 71 -40 170 -39 112 0 158 24 200 102 20 37 21 850
2 900 -35 87 -106 121 -238 112z"/>
<path d="M2830 1563 c-25 -9 -46 -20 -48 -24 -2 -5 -17 -6 -33 -2 -33 6 -38
-9 -15 -42 7 -11 19 -46 26 -78 8 -32 19 -65 27 -75 12 -16 14 -16 27 1 11 14
19 15 39 8 49 -19 137 4 120 32 -3 5 -7 41 -9 79 -3 69 -10 85 -51 106 -26 14
-27 14 -83 -5z m63 -100 c5 -51 -2 -63 -39 -63 -18 0 -23 9 -31 50 -6 27 -8
52 -5 55 3 3 20 5 37 5 31 0 33 -2 38 -47z"/>
<path d="M3665 1469 c-99 -25 -130 -28 -129 -8 1 14 -3 14 -39 2 -22 -8 -53
-12 -70 -9 -44 7 -68 -9 -65 -44 4 -51 20 -51 226 -2 45 11 82 16 82 12 0 -8
-67 -42 -107 -54 -28 -9 -47 -32 -40 -49 4 -12 16 -12 71 -2 43 8 68 9 72 3
10 -16 -14 -26 -79 -33 -61 -7 -86 -29 -53 -47 9 -5 14 -14 10 -19 -24 -40 62
-105 125 -94 41 7 70 25 77 49 8 26 -14 37 -61 30 -48 -7 -46 -7 -67 -5 -48 3
10 41 63 41 50 0 65 14 64 59 -1 50 -27 81 -69 81 l-31 1 28 15 c15 8 50 18
77 21 55 6 70 25 44 54 -20 23 -37 22 -129 -2z"/>
<path d="M1674 1465 c-4 -8 -1 -22 6 -29 15 -20 26 -116 12 -116 -6 0 -10 12
-10 28 1 46 -11 69 -48 87 -49 23 -65 8 -42 -38 9 -17 19 -42 23 -54 7 -25 -4
-28 -82 -23 -56 3 -71 -72 -18 -86 13 -3 64 3 112 15 116 27 206 31 273 14 30
-7 60 -11 67 -9 18 7 16 51 -3 70 -21 21 -40 23 -144 11 l-55 -6 3 55 c4 58 2
61 -63 86 -20 8 -27 7 -31 -5z"/>
<path d="M872 1407 c-20 -9 -23 -16 -18 -41 4 -16 8 -32 11 -34 7 -8 82 -4
122 7 37 9 132 24 163 25 11 1 16 -13 17 -54 4 -94 14 -160 23 -160 12 0 40
42 44 66 13 69 16 165 6 184 -11 21 -16 22 -93 15 -86 -7 -234 -8 -245 -1 -4
2 -18 -1 -30 -7z"/>
<path d="M2985 961 c-3 -5 6 -22 20 -37 18 -19 25 -39 26 -68 0 -23 1 -62 2
-88 l2 -47 -50 -11 c-27 -6 -58 -13 -68 -15 -13 -2 -19 5 -24 26 -6 34 -37 59
-70 59 -33 0 -35 -13 -8 -50 13 -18 22 -37 19 -41 -3 -5 -22 -8 -43 -7 -21 0
-43 -2 -49 -6 -23 -14 18 -77 46 -71 10 1 35 8 57 13 31 9 184 42 191 42 1 0
4 -9 7 -19 6 -24 1 -30 -52 -66 -111 -75 -130 -128 -66 -184 38 -33 51 -37
111 -32 9 0 29 15 45 32 50 53 29 151 -34 161 -31 6 77 56 138 65 37 5 48 11
56 31 7 19 6 27 -8 38 -24 18 -58 17 -73 -2 -8 -8 -21 -19 -31 -25 -17 -9 -18
-2 -15 105 4 133 -6 164 -60 189 -39 19 -60 21 -69 8z m53 -505 c-4 -27 -43
-33 -69 -10 -25 22 -24 32 3 62 l23 23 23 -26 c13 -15 22 -37 20 -49z"/>
<path d="M1130 940 c-24 -12 -52 -19 -61 -17 -34 9 -43 -9 -21 -41 12 -16 25
-47 28 -68 3 -22 10 -47 15 -56 10 -19 39 -25 39 -8 0 7 7 7 21 0 20 -11 20
-12 2 -33 -17 -20 -17 -20 19 2 21 12 50 24 65 27 15 3 31 9 36 13 4 4 8 40 9
80 1 60 -2 75 -18 92 -30 30 -81 33 -134 9z m78 -85 c4 -41 -8 -55 -44 -55
-18 0 -22 6 -22 34 0 19 -3 40 -8 47 -4 7 -3 10 2 7 5 -3 18 -2 29 3 31 12 40
5 43 -36z"/>
<path d="M1720 944 c0 -9 11 -29 25 -46 21 -25 25 -40 26 -101 0 -40 2 -100 4
-135 3 -68 4 -66 -59 -77 l-38 -6 21 34 c35 57 20 125 -30 128 -8 0 1 7 19 15
57 25 31 74 -30 56 -18 -5 -42 -10 -53 -11 -83 -4 -103 -17 -86 -50 7 -12 20
-21 31 -21 18 0 18 -1 2 -30 -15 -27 -16 -32 -2 -56 8 -15 24 -32 35 -38 11
-6 22 -12 25 -14 11 -7 -28 -22 -57 -22 -36 0 -44 -21 -20 -54 13 -17 17 -17
115 3 134 28 131 28 130 -16 0 -43 12 -146 18 -152 7 -8 42 84 48 128 3 24 8
46 10 49 3 2 19 -1 37 -7 64 -22 104 13 59 54 -15 14 -29 16 -60 11 l-41 -6 4
139 c4 134 3 142 -19 174 -13 20 -40 41 -64 51 -50 20 -50 20 -50 0z m-62
-269 c-4 -26 -36 -31 -53 -8 -11 15 -11 21 2 35 12 14 19 15 34 5 11 -7 18
-21 17 -32z"/>
<path d="M2350 949 c0 -7 9 -26 20 -44 15 -24 22 -57 25 -122 l6 -90 -32 -7
c-53 -10 -66 -8 -44 8 12 8 21 32 25 65 6 46 4 55 -17 78 -22 23 -29 25 -78
19 -30 -3 -66 -11 -82 -17 l-28 -11 28 -24 c30 -26 57 -30 88 -14 16 9 19 7
20 -12 0 -13 2 -30 4 -38 11 -58 10 -65 -14 -68 -13 -2 -21 0 -17 6 3 6 2 22
-3 36 -7 18 -20 27 -46 32 -46 8 -53 0 -32 -35 25 -42 21 -51 -18 -51 -43 0
-54 -20 -31 -55 21 -32 29 -31 167 5 62 16 114 28 115 27 1 -1 4 -13 6 -27 2
-20 -4 -28 -37 -45 -121 -61 -143 -89 -103 -132 54 -58 134 -69 179 -24 47 48
15 79 -62 62 -24 -5 -44 -4 -59 4 l-22 12 28 20 c48 33 141 63 199 63 73 0
104 29 69 64 -19 20 -61 20 -94 1 -34 -20 -42 -18 -35 5 3 11 7 69 8 129 1
104 0 112 -23 136 -40 43 -110 70 -110 44z"/>
<path d="M1550 910 c0 -5 17 -29 37 -52 21 -24 38 -44 39 -46 1 -2 18 4 38 12
58 24 42 63 -31 72 -21 3 -42 9 -47 14 -13 13 -36 13 -36 0z"/>
<path d="M2844 884 c-28 -6 -56 -14 -62 -18 -27 -17 23 -56 63 -50 11 2 29 4
40 6 17 3 21 -5 28 -54 6 -37 14 -58 23 -58 23 0 44 43 44 93 0 39 -5 53 -26
72 -28 26 -34 26 -110 9z"/>
<path d="M1015 689 c-16 -5 -46 -10 -66 -10 -49 -2 -61 -11 -57 -45 3 -27 6
-29 48 -30 25 0 65 3 90 8 167 32 163 32 167 -17 3 -39 2 -41 -45 -63 -59 -27
-92 -56 -92 -81 0 -19 31 -51 67 -70 64 -33 167 12 147 64 -7 17 -25 19 -69 7
-37 -10 -80 -1 -80 18 0 19 86 61 101 49 22 -18 44 30 44 98 0 75 -16 90 -78
74 -20 -5 -60 -12 -89 -14 -42 -4 -51 -3 -46 9 6 16 1 16 -42 3z"/>
</g>
</svg>
